<mxfile host="app.diagrams.net" modified="2023-10-24T22:10:18.041Z" agent="Mozilla/5.0 (Windows NT 10.0; Win64; x64) AppleWebKit/537.36 (KHTML, like Gecko) Chrome/116.0.0.0 Safari/537.36 OPR/102.0.0.0" etag="jcKcRIp3c2Dhnx8ikduy" version="22.0.6" type="github">
  <diagram id="R2lEEEUBdFMjLlhIrx00" name="Page-1">
    <mxGraphModel dx="2571" dy="1338" grid="0" gridSize="10" guides="1" tooltips="1" connect="1" arrows="1" fold="1" page="0" pageScale="1" pageWidth="850" pageHeight="1100" math="0" shadow="0" extFonts="Permanent Marker^https://fonts.googleapis.com/css?family=Permanent+Marker">
      <root>
        <mxCell id="0" />
        <mxCell id="1" parent="0" />
        <mxCell id="23qdFUq4dAk7zNPo8lPI-6" style="edgeStyle=orthogonalEdgeStyle;rounded=0;orthogonalLoop=1;jettySize=auto;html=1;exitX=1;exitY=0.5;exitDx=0;exitDy=0;endArrow=none;endFill=0;" edge="1" parent="1" source="23qdFUq4dAk7zNPo8lPI-1" target="23qdFUq4dAk7zNPo8lPI-4">
          <mxGeometry relative="1" as="geometry" />
        </mxCell>
        <mxCell id="23qdFUq4dAk7zNPo8lPI-1" value="Coche" style="whiteSpace=wrap;html=1;align=center;" vertex="1" parent="1">
          <mxGeometry x="31" y="337" width="100" height="40" as="geometry" />
        </mxCell>
        <mxCell id="23qdFUq4dAk7zNPo8lPI-45" style="edgeStyle=orthogonalEdgeStyle;curved=1;rounded=0;orthogonalLoop=1;jettySize=auto;html=1;exitX=1;exitY=0.25;exitDx=0;exitDy=0;endArrow=none;endFill=0;" edge="1" parent="1" source="23qdFUq4dAk7zNPo8lPI-2" target="23qdFUq4dAk7zNPo8lPI-42">
          <mxGeometry relative="1" as="geometry" />
        </mxCell>
        <mxCell id="23qdFUq4dAk7zNPo8lPI-46" style="edgeStyle=orthogonalEdgeStyle;curved=1;rounded=0;orthogonalLoop=1;jettySize=auto;html=1;exitX=1;exitY=0.75;exitDx=0;exitDy=0;endArrow=none;endFill=0;" edge="1" parent="1" source="23qdFUq4dAk7zNPo8lPI-2" target="23qdFUq4dAk7zNPo8lPI-43">
          <mxGeometry relative="1" as="geometry" />
        </mxCell>
        <mxCell id="23qdFUq4dAk7zNPo8lPI-2" value="Revisiones" style="whiteSpace=wrap;html=1;align=center;" vertex="1" parent="1">
          <mxGeometry x="546" y="337" width="100" height="40" as="geometry" />
        </mxCell>
        <mxCell id="23qdFUq4dAk7zNPo8lPI-3" value="Cliente" style="whiteSpace=wrap;html=1;align=center;" vertex="1" parent="1">
          <mxGeometry x="31" y="71" width="100" height="40" as="geometry" />
        </mxCell>
        <mxCell id="23qdFUq4dAk7zNPo8lPI-7" style="edgeStyle=orthogonalEdgeStyle;rounded=0;orthogonalLoop=1;jettySize=auto;html=1;exitX=1;exitY=0.5;exitDx=0;exitDy=0;endArrow=none;endFill=0;" edge="1" parent="1" source="23qdFUq4dAk7zNPo8lPI-4" target="23qdFUq4dAk7zNPo8lPI-2">
          <mxGeometry relative="1" as="geometry" />
        </mxCell>
        <mxCell id="23qdFUq4dAk7zNPo8lPI-9" style="edgeStyle=orthogonalEdgeStyle;rounded=0;orthogonalLoop=1;jettySize=auto;html=1;exitX=0.5;exitY=0;exitDx=0;exitDy=0;endArrow=none;endFill=0;" edge="1" parent="1" source="23qdFUq4dAk7zNPo8lPI-8" target="23qdFUq4dAk7zNPo8lPI-3">
          <mxGeometry relative="1" as="geometry" />
        </mxCell>
        <mxCell id="23qdFUq4dAk7zNPo8lPI-10" style="edgeStyle=orthogonalEdgeStyle;rounded=0;orthogonalLoop=1;jettySize=auto;html=1;exitX=0.5;exitY=1;exitDx=0;exitDy=0;endArrow=none;endFill=0;" edge="1" parent="1" source="23qdFUq4dAk7zNPo8lPI-8" target="23qdFUq4dAk7zNPo8lPI-1">
          <mxGeometry relative="1" as="geometry" />
        </mxCell>
        <mxCell id="23qdFUq4dAk7zNPo8lPI-12" value="" style="group" vertex="1" connectable="0" parent="1">
          <mxGeometry x="268" y="297" width="120" height="90" as="geometry" />
        </mxCell>
        <mxCell id="23qdFUq4dAk7zNPo8lPI-4" value="Imparte" style="shape=rhombus;perimeter=rhombusPerimeter;whiteSpace=wrap;html=1;align=center;" vertex="1" parent="23qdFUq4dAk7zNPo8lPI-12">
          <mxGeometry y="30" width="120" height="60" as="geometry" />
        </mxCell>
        <mxCell id="23qdFUq4dAk7zNPo8lPI-5" value="1:M" style="text;html=1;strokeColor=none;fillColor=none;align=center;verticalAlign=middle;whiteSpace=wrap;rounded=0;" vertex="1" parent="23qdFUq4dAk7zNPo8lPI-12">
          <mxGeometry x="30" width="60" height="30" as="geometry" />
        </mxCell>
        <mxCell id="23qdFUq4dAk7zNPo8lPI-13" value="" style="group" vertex="1" connectable="0" parent="1">
          <mxGeometry x="-39" y="194" width="180" height="60" as="geometry" />
        </mxCell>
        <mxCell id="23qdFUq4dAk7zNPo8lPI-8" value="Imparte" style="shape=rhombus;perimeter=rhombusPerimeter;whiteSpace=wrap;html=1;align=center;" vertex="1" parent="23qdFUq4dAk7zNPo8lPI-13">
          <mxGeometry x="60" width="120" height="60" as="geometry" />
        </mxCell>
        <mxCell id="23qdFUq4dAk7zNPo8lPI-11" value="1:M" style="text;html=1;strokeColor=none;fillColor=none;align=center;verticalAlign=middle;whiteSpace=wrap;rounded=0;" vertex="1" parent="23qdFUq4dAk7zNPo8lPI-13">
          <mxGeometry y="15" width="60" height="30" as="geometry" />
        </mxCell>
        <mxCell id="23qdFUq4dAk7zNPo8lPI-36" style="edgeStyle=orthogonalEdgeStyle;curved=1;rounded=0;orthogonalLoop=1;jettySize=auto;html=1;exitX=1;exitY=0.5;exitDx=0;exitDy=0;endArrow=none;endFill=0;" edge="1" parent="1" source="23qdFUq4dAk7zNPo8lPI-14" target="23qdFUq4dAk7zNPo8lPI-1">
          <mxGeometry relative="1" as="geometry" />
        </mxCell>
        <mxCell id="23qdFUq4dAk7zNPo8lPI-14" value="Marca" style="ellipse;whiteSpace=wrap;html=1;align=center;" vertex="1" parent="1">
          <mxGeometry x="-114" y="347" width="100" height="40" as="geometry" />
        </mxCell>
        <mxCell id="23qdFUq4dAk7zNPo8lPI-15" value="Matrícula" style="ellipse;whiteSpace=wrap;html=1;align=center;fontStyle=4;" vertex="1" parent="1">
          <mxGeometry x="-87" y="291" width="100" height="40" as="geometry" />
        </mxCell>
        <mxCell id="23qdFUq4dAk7zNPo8lPI-23" style="edgeStyle=orthogonalEdgeStyle;rounded=0;orthogonalLoop=1;jettySize=auto;html=1;exitX=1;exitY=0;exitDx=0;exitDy=0;entryX=0;entryY=0.75;entryDx=0;entryDy=0;endArrow=none;endFill=0;curved=1;" edge="1" parent="1" source="23qdFUq4dAk7zNPo8lPI-16" target="23qdFUq4dAk7zNPo8lPI-3">
          <mxGeometry relative="1" as="geometry" />
        </mxCell>
        <mxCell id="23qdFUq4dAk7zNPo8lPI-16" value="Codigo" style="ellipse;whiteSpace=wrap;html=1;align=center;fontStyle=4;" vertex="1" parent="1">
          <mxGeometry x="-93" y="115" width="100" height="40" as="geometry" />
        </mxCell>
        <mxCell id="23qdFUq4dAk7zNPo8lPI-24" style="edgeStyle=orthogonalEdgeStyle;curved=1;rounded=0;orthogonalLoop=1;jettySize=auto;html=1;exitX=1;exitY=0.5;exitDx=0;exitDy=0;endArrow=none;endFill=0;" edge="1" parent="1" source="23qdFUq4dAk7zNPo8lPI-17" target="23qdFUq4dAk7zNPo8lPI-3">
          <mxGeometry relative="1" as="geometry" />
        </mxCell>
        <mxCell id="23qdFUq4dAk7zNPo8lPI-17" value="Nombre" style="ellipse;whiteSpace=wrap;html=1;align=center;" vertex="1" parent="1">
          <mxGeometry x="-114" y="48" width="100" height="40" as="geometry" />
        </mxCell>
        <mxCell id="23qdFUq4dAk7zNPo8lPI-25" style="edgeStyle=orthogonalEdgeStyle;curved=1;rounded=0;orthogonalLoop=1;jettySize=auto;html=1;exitX=0.5;exitY=1;exitDx=0;exitDy=0;endArrow=none;endFill=0;" edge="1" parent="1" source="23qdFUq4dAk7zNPo8lPI-18" target="23qdFUq4dAk7zNPo8lPI-3">
          <mxGeometry relative="1" as="geometry" />
        </mxCell>
        <mxCell id="23qdFUq4dAk7zNPo8lPI-18" value="Dirección" style="ellipse;whiteSpace=wrap;html=1;align=center;" vertex="1" parent="1">
          <mxGeometry x="-34" y="-4" width="100" height="40" as="geometry" />
        </mxCell>
        <mxCell id="23qdFUq4dAk7zNPo8lPI-19" value="Ciudad" style="ellipse;whiteSpace=wrap;html=1;align=center;" vertex="1" parent="1">
          <mxGeometry x="98" y="6" width="100" height="40" as="geometry" />
        </mxCell>
        <mxCell id="23qdFUq4dAk7zNPo8lPI-28" style="edgeStyle=orthogonalEdgeStyle;curved=1;rounded=0;orthogonalLoop=1;jettySize=auto;html=1;exitX=0;exitY=0.5;exitDx=0;exitDy=0;entryX=1;entryY=0.75;entryDx=0;entryDy=0;endArrow=none;endFill=0;" edge="1" parent="1" source="23qdFUq4dAk7zNPo8lPI-20" target="23qdFUq4dAk7zNPo8lPI-3">
          <mxGeometry relative="1" as="geometry" />
        </mxCell>
        <mxCell id="23qdFUq4dAk7zNPo8lPI-20" value="NIF" style="ellipse;whiteSpace=wrap;html=1;align=center;" vertex="1" parent="1">
          <mxGeometry x="168" y="118" width="100" height="40" as="geometry" />
        </mxCell>
        <mxCell id="23qdFUq4dAk7zNPo8lPI-27" style="edgeStyle=orthogonalEdgeStyle;curved=1;rounded=0;orthogonalLoop=1;jettySize=auto;html=1;exitX=0;exitY=0.5;exitDx=0;exitDy=0;endArrow=none;endFill=0;" edge="1" parent="1" source="23qdFUq4dAk7zNPo8lPI-21" target="23qdFUq4dAk7zNPo8lPI-3">
          <mxGeometry relative="1" as="geometry" />
        </mxCell>
        <mxCell id="23qdFUq4dAk7zNPo8lPI-21" value="Teléfono" style="ellipse;whiteSpace=wrap;html=1;align=center;" vertex="1" parent="1">
          <mxGeometry x="176" y="55" width="100" height="40" as="geometry" />
        </mxCell>
        <mxCell id="23qdFUq4dAk7zNPo8lPI-26" style="edgeStyle=orthogonalEdgeStyle;curved=1;rounded=0;orthogonalLoop=1;jettySize=auto;html=1;exitX=0.5;exitY=1;exitDx=0;exitDy=0;entryX=0.639;entryY=0.044;entryDx=0;entryDy=0;entryPerimeter=0;endArrow=none;endFill=0;" edge="1" parent="1" source="23qdFUq4dAk7zNPo8lPI-19" target="23qdFUq4dAk7zNPo8lPI-3">
          <mxGeometry relative="1" as="geometry" />
        </mxCell>
        <mxCell id="23qdFUq4dAk7zNPo8lPI-40" style="edgeStyle=orthogonalEdgeStyle;curved=1;rounded=0;orthogonalLoop=1;jettySize=auto;html=1;exitX=0;exitY=0.5;exitDx=0;exitDy=0;entryX=0.75;entryY=1;entryDx=0;entryDy=0;endArrow=none;endFill=0;" edge="1" parent="1" source="23qdFUq4dAk7zNPo8lPI-29" target="23qdFUq4dAk7zNPo8lPI-1">
          <mxGeometry relative="1" as="geometry" />
        </mxCell>
        <mxCell id="23qdFUq4dAk7zNPo8lPI-29" value="Precio" style="ellipse;whiteSpace=wrap;html=1;align=center;" vertex="1" parent="1">
          <mxGeometry x="149" y="406" width="100" height="40" as="geometry" />
        </mxCell>
        <mxCell id="23qdFUq4dAk7zNPo8lPI-39" style="edgeStyle=orthogonalEdgeStyle;curved=1;rounded=0;orthogonalLoop=1;jettySize=auto;html=1;exitX=0.5;exitY=0;exitDx=0;exitDy=0;endArrow=none;endFill=0;" edge="1" parent="1" source="23qdFUq4dAk7zNPo8lPI-30" target="23qdFUq4dAk7zNPo8lPI-1">
          <mxGeometry relative="1" as="geometry" />
        </mxCell>
        <mxCell id="23qdFUq4dAk7zNPo8lPI-30" value="Color" style="ellipse;whiteSpace=wrap;html=1;align=center;" vertex="1" parent="1">
          <mxGeometry x="23" y="424" width="100" height="40" as="geometry" />
        </mxCell>
        <mxCell id="23qdFUq4dAk7zNPo8lPI-37" style="edgeStyle=orthogonalEdgeStyle;curved=1;rounded=0;orthogonalLoop=1;jettySize=auto;html=1;exitX=1;exitY=0;exitDx=0;exitDy=0;entryX=0.25;entryY=1;entryDx=0;entryDy=0;endArrow=none;endFill=0;" edge="1" parent="1" source="23qdFUq4dAk7zNPo8lPI-31" target="23qdFUq4dAk7zNPo8lPI-1">
          <mxGeometry relative="1" as="geometry" />
        </mxCell>
        <mxCell id="23qdFUq4dAk7zNPo8lPI-31" value="Modelo" style="ellipse;whiteSpace=wrap;html=1;align=center;" vertex="1" parent="1">
          <mxGeometry x="-87" y="398" width="100" height="40" as="geometry" />
        </mxCell>
        <mxCell id="23qdFUq4dAk7zNPo8lPI-35" style="edgeStyle=orthogonalEdgeStyle;curved=1;rounded=0;orthogonalLoop=1;jettySize=auto;html=1;exitX=0.5;exitY=1;exitDx=0;exitDy=0;entryX=-0.012;entryY=0.33;entryDx=0;entryDy=0;entryPerimeter=0;endArrow=none;endFill=0;" edge="1" parent="1" source="23qdFUq4dAk7zNPo8lPI-15" target="23qdFUq4dAk7zNPo8lPI-1">
          <mxGeometry relative="1" as="geometry" />
        </mxCell>
        <mxCell id="23qdFUq4dAk7zNPo8lPI-42" value="Código" style="ellipse;whiteSpace=wrap;html=1;align=center;fontStyle=4;" vertex="1" parent="1">
          <mxGeometry x="675" y="297" width="100" height="40" as="geometry" />
        </mxCell>
        <mxCell id="23qdFUq4dAk7zNPo8lPI-47" style="edgeStyle=orthogonalEdgeStyle;curved=1;rounded=0;orthogonalLoop=1;jettySize=auto;html=1;exitX=1;exitY=0.5;exitDx=0;exitDy=0;endArrow=none;endFill=0;" edge="1" parent="1" source="23qdFUq4dAk7zNPo8lPI-43" target="23qdFUq4dAk7zNPo8lPI-44">
          <mxGeometry relative="1" as="geometry" />
        </mxCell>
        <mxCell id="23qdFUq4dAk7zNPo8lPI-43" value="Tipo Cambio" style="ellipse;shape=doubleEllipse;margin=3;whiteSpace=wrap;html=1;align=center;" vertex="1" parent="1">
          <mxGeometry x="675" y="377" width="100" height="40" as="geometry" />
        </mxCell>
        <mxCell id="23qdFUq4dAk7zNPo8lPI-44" value="Cambio Aceite&lt;br&gt;&lt;div style=&quot;&quot;&gt;&lt;span style=&quot;background-color: initial;&quot;&gt;Cambio Filtro&lt;/span&gt;&lt;/div&gt;&lt;div style=&quot;&quot;&gt;&lt;span style=&quot;background-color: initial;&quot;&gt;Cambio Frenos&lt;/span&gt;&lt;/div&gt;&lt;div style=&quot;&quot;&gt;etc&lt;/div&gt;" style="shape=hexagon;perimeter=hexagonPerimeter2;whiteSpace=wrap;html=1;fixedSize=1;" vertex="1" parent="1">
          <mxGeometry x="813" y="357" width="222" height="80" as="geometry" />
        </mxCell>
        <mxCell id="23qdFUq4dAk7zNPo8lPI-48" value="0:1" style="text;html=1;strokeColor=none;fillColor=none;align=center;verticalAlign=middle;whiteSpace=wrap;rounded=0;" vertex="1" parent="1">
          <mxGeometry x="77" y="111" width="60" height="30" as="geometry" />
        </mxCell>
        <mxCell id="23qdFUq4dAk7zNPo8lPI-49" value="0:M" style="text;html=1;strokeColor=none;fillColor=none;align=center;verticalAlign=middle;whiteSpace=wrap;rounded=0;" vertex="1" parent="1">
          <mxGeometry x="81" y="307" width="60" height="30" as="geometry" />
        </mxCell>
        <mxCell id="23qdFUq4dAk7zNPo8lPI-50" value="1:1" style="text;html=1;strokeColor=none;fillColor=none;align=center;verticalAlign=middle;whiteSpace=wrap;rounded=0;" vertex="1" parent="1">
          <mxGeometry x="131" y="331" width="60" height="30" as="geometry" />
        </mxCell>
        <mxCell id="23qdFUq4dAk7zNPo8lPI-51" value="0:M" style="text;html=1;strokeColor=none;fillColor=none;align=center;verticalAlign=middle;whiteSpace=wrap;rounded=0;" vertex="1" parent="1">
          <mxGeometry x="486" y="327" width="60" height="30" as="geometry" />
        </mxCell>
      </root>
    </mxGraphModel>
  </diagram>
</mxfile>
